<svg width="22" height="22" viewBox="0 0 22 22" fill="none" xmlns="http://www.w3.org/2000/svg">
<path d="M0 2.95828C0 2.25279 0.247755 1.67078 0.743242 1.21224C1.23873 0.753684 1.88289 0.524414 2.67567 0.524414C3.45431 0.524414 4.08429 0.750149 4.56563 1.20166C5.06112 1.66727 5.30887 2.27396 5.30887 3.02177C5.30887 3.69902 5.06821 4.26338 4.58687 4.71489C4.09138 5.1805 3.44015 5.4133 2.6332 5.4133H2.61197C1.83332 5.4133 1.20335 5.1805 0.722007 4.71489C0.240662 4.24928 0 3.66374 0 2.95828ZM0.276061 21.4768V7.33923H4.99034V21.4768H0.276061ZM7.60231 21.4768H12.3166V13.5826C12.3166 13.0888 12.3732 12.7078 12.4865 12.4398C12.6847 11.96 12.9855 11.5544 13.389 11.2228C13.7925 10.8912 14.2986 10.7255 14.9073 10.7255C16.4929 10.7255 17.2857 11.7907 17.2857 13.9212V21.4768H22V13.371C22 11.2828 21.5045 9.69901 20.5135 8.61965C19.5225 7.54028 18.213 7.0006 16.5849 7.0006C14.7587 7.0006 13.3359 7.78367 12.3166 9.34981V9.39214H12.2954L12.3166 9.34981V7.33923H7.60231C7.63062 7.79072 7.64478 9.19459 7.64478 11.5509C7.64478 13.9071 7.63062 17.2158 7.60231 21.4768Z" fill="#181A3F"/>
</svg>
