<svg width="22" height="22" viewBox="0 0 22 22" fill="none" xmlns="http://www.w3.org/2000/svg">
<path fill-rule="evenodd" clip-rule="evenodd" d="M0 10.9999C0 6.60585 0 4.40885 1.04707 2.82641C1.51463 2.11978 2.11981 1.51461 2.82645 1.04705C4.40891 0 6.60594 0 11 0C15.3941 0 17.5911 0 19.1735 1.04705C19.8802 1.51461 20.4854 2.11978 20.9529 2.82641C22 4.40885 22 6.60585 22 10.9999C22 15.3939 22 17.5909 20.9529 19.1733C20.4854 19.8799 19.8802 20.4851 19.1735 20.9526C17.5911 21.9997 15.3941 21.9997 11 21.9997C6.60594 21.9997 4.40891 21.9997 2.82645 20.9526C2.11981 20.4851 1.51463 19.8799 1.04707 19.1733C0 17.5909 0 15.3939 0 10.9999ZM16.6946 11.0007C16.6946 14.1458 14.145 16.6954 10.9998 16.6954C7.85464 16.6954 5.30498 14.1458 5.30498 11.0007C5.30498 7.85555 7.85464 5.30592 10.9998 5.30592C14.145 5.30592 16.6946 7.85555 16.6946 11.0007ZM10.9998 14.7687C13.0809 14.7687 14.7679 13.0817 14.7679 11.0007C14.7679 8.91964 13.0809 7.23262 10.9998 7.23262C8.91874 7.23262 7.2317 8.91964 7.2317 11.0007C7.2317 13.0817 8.91874 14.7687 10.9998 14.7687ZM16.9196 6.35773C17.6586 6.35773 18.2577 5.75864 18.2577 5.01963C18.2577 4.28062 17.6586 3.68153 16.9196 3.68153C16.1805 3.68153 15.5815 4.28062 15.5815 5.01963C15.5815 5.75864 16.1805 6.35773 16.9196 6.35773Z" fill="#181A3F"/>
</svg>
