<svg width="246" height="48" viewBox="0 0 246 48" fill="none" xmlns="http://www.w3.org/2000/svg">
<path d="M30.1458 0.0622902L48.2057 18.1953L18.5874 47.9335L0.527565 29.8004L30.1458 0.0622902Z" fill="#233B99"/>
<path d="M12.0959 18.0818L30.1558 -0.0512695L59.774 29.6869L41.7141 47.8199L12.0959 18.0818Z" fill="#FF7549"/>
<path d="M77.556 13.6668C78.6105 13.6668 79.5641 13.8878 80.4168 14.3297C81.2787 14.7716 81.9572 15.3976 82.4524 16.2078C82.9475 17.0179 83.1951 17.9478 83.1951 18.9973C83.1951 19.7246 83.0575 20.4058 82.7825 21.0411C82.5165 21.6671 82.0581 22.132 81.4071 22.4358C83.2042 22.8777 84.1028 24.6407 84.1028 27.7248C84.1028 28.6823 83.8415 29.5661 83.3189 30.3762C82.7962 31.1864 82.0902 31.8262 81.2008 32.2957C80.3114 32.7652 79.3441 33 78.2987 33H70.2665V13.6668H77.556ZM77.0609 20.9168C77.4276 20.9168 77.7624 20.8339 78.0649 20.6682C78.3767 20.5025 78.6197 20.2723 78.7939 19.9777C78.9773 19.6739 79.069 19.3379 79.069 18.9697C79.069 18.4265 78.8764 17.9984 78.4913 17.6854C78.1062 17.3632 77.6294 17.202 77.0609 17.202H74.3927V20.9168H77.0609ZM77.8586 29.4924C78.3355 29.4924 78.771 29.3819 79.1652 29.161C79.5595 28.9308 79.8712 28.6178 80.1005 28.2219C80.3297 27.8169 80.4443 27.3658 80.4443 26.8686C80.4443 26.4451 80.3251 26.0447 80.0868 25.6672C79.8575 25.2805 79.5458 24.9675 79.1515 24.7282C78.7572 24.4888 78.3263 24.3691 77.8586 24.3691H74.3927V29.4924H77.8586ZM96.3181 13.6668C97.3542 13.6668 98.3031 13.9338 99.165 14.4678C100.027 15.0018 100.705 15.7198 101.2 16.6221C101.705 17.5243 101.957 18.5093 101.957 19.5773C101.957 20.8109 101.654 21.9157 101.049 22.8915C100.444 23.8582 99.6187 24.5947 98.5736 25.101L103.139 33H98.3811L94.0349 25.4877H92.6046V33H88.4784V13.6668H96.3181ZM95.823 21.3449C96.1805 21.3449 96.5106 21.2528 96.8131 21.0687C97.1249 20.8753 97.3725 20.6222 97.5558 20.3092C97.7393 19.9869 97.8309 19.6417 97.8309 19.2735C97.8309 18.9052 97.7393 18.5646 97.5558 18.2516C97.3725 17.9293 97.1249 17.6762 96.8131 17.492C96.5106 17.2987 96.1805 17.202 95.823 17.202H92.6046V21.3449H95.823ZM117.104 13.6668L124.091 33H119.717L118.617 29.9619H110.943L109.842 33H105.469L112.456 13.6668H117.104ZM117.104 25.8191L114.766 19.4116L112.456 25.8191H117.104ZM127.4 13.6668H131.856L138.899 25.5153V13.6668H143.025V33H138.568L131.527 21.1515V33H127.4V13.6668ZM154.089 13.6668C155.831 13.6668 157.436 14.1041 158.903 14.9787C160.38 15.8441 161.548 17.0179 162.41 18.5001C163.281 19.9731 163.717 21.5842 163.717 23.3334C163.717 25.0826 163.281 26.6983 162.41 28.1805C161.548 29.6535 160.38 30.8273 158.903 31.7019C157.436 32.5673 155.831 33 154.089 33H147.708V13.6668H154.089ZM154.089 28.8572C155.07 28.8572 155.982 28.6132 156.826 28.1253C157.67 27.6281 158.339 26.9561 158.834 26.1091C159.339 25.2621 159.591 24.3369 159.591 23.3334C159.591 22.3391 159.339 21.4185 158.834 20.5715C158.339 19.7246 157.67 19.0525 156.826 18.5554C155.982 18.0582 155.07 17.8097 154.089 17.8097H151.833V28.8572H154.089ZM168.104 13.6668H172.231V33H168.104V13.6668ZM177.308 13.6668H181.764L188.807 25.5153V13.6668H192.932V33H188.476L181.434 21.1515V33H177.308V13.6668ZM205.984 33.359C204.223 33.359 202.619 32.9079 201.171 32.0057C199.73 31.0943 198.594 29.8699 197.759 28.3324C196.934 26.795 196.521 25.1194 196.521 23.3058C196.521 21.4001 196.967 19.6877 197.856 18.1687C198.754 16.6497 199.937 15.4667 201.404 14.6197C202.871 13.7635 204.425 13.3354 206.067 13.3354C207.46 13.3354 208.804 13.6622 210.096 14.3159C211.389 14.9695 212.54 15.9684 213.548 17.3125L209.862 19.3011C209.313 18.6843 208.707 18.2239 208.047 17.9201C207.386 17.6071 206.708 17.4506 206.011 17.4506C205.086 17.4506 204.209 17.7038 203.385 18.2101C202.569 18.7165 201.909 19.4208 201.404 20.323C200.9 21.2252 200.648 22.2471 200.648 23.3887C200.648 24.4566 200.891 25.4371 201.377 26.3301C201.863 27.2231 202.518 27.9273 203.343 28.4429C204.168 28.9584 205.067 29.2162 206.039 29.2162C206.919 29.2162 207.758 28.9769 208.556 28.4981C209.362 28.0194 210.037 27.3105 210.577 26.3715H207.992V22.781H215.447C215.456 22.9007 215.461 23.0756 215.461 23.3058C215.461 25.1286 215.038 26.8088 214.195 28.3462C213.351 29.8837 212.205 31.1035 210.757 32.0057C209.308 32.9079 207.717 33.359 205.984 33.359ZM232.949 23.2782L225.962 13.6392H231.051L235.508 19.7706L239.964 13.6392H245.052L238.065 23.2782L245.108 33H239.99L235.508 26.8134L231.024 33H225.907L232.949 23.2782Z" fill="#181A3F"/>
</svg>
