<svg width="22" height="20" viewBox="0 0 22 20" fill="none" xmlns="http://www.w3.org/2000/svg">
<path d="M14.6997 0.877099V0.873047H15.7313L16.1082 0.950037C16.3595 1.00002 16.5876 1.06552 16.7926 1.14656C16.9976 1.22761 17.196 1.32216 17.3877 1.43021C17.5795 1.53826 17.7534 1.64836 17.9095 1.76046C18.0642 1.87122 18.2031 1.98873 18.3261 2.11299C18.4477 2.23861 18.6375 2.27102 18.8954 2.21024C19.1533 2.14946 19.431 2.06503 19.7286 1.95698C20.0261 1.84893 20.3204 1.72737 20.6113 1.5923C20.9023 1.45722 21.0795 1.37146 21.143 1.33499C21.2052 1.29718 21.2382 1.27692 21.2422 1.2742L21.2461 1.26813L21.266 1.258L21.2858 1.24787L21.3057 1.23774L21.3255 1.22761L21.3295 1.22153L21.3354 1.21748L21.3414 1.21342L21.3453 1.20735L21.3652 1.20127L21.385 1.19722L21.3811 1.22761L21.3751 1.258L21.3652 1.28839L21.3553 1.31878L21.3453 1.33904L21.3354 1.3593L21.3255 1.38969C21.3189 1.40995 21.3123 1.43696 21.3057 1.47073C21.2991 1.50451 21.2362 1.63956 21.1172 1.87594C20.9982 2.11232 20.8494 2.35206 20.6709 2.59519C20.4923 2.83832 20.3323 3.022 20.1908 3.14628C20.048 3.27189 19.9534 3.35968 19.9071 3.40966C19.8608 3.46098 19.8046 3.50825 19.7385 3.55149L19.6393 3.61835L19.6195 3.62848L19.5996 3.63861L19.5957 3.64468L19.5897 3.64874L19.5837 3.65279L19.5798 3.65887L19.5599 3.669L19.5401 3.67913L19.5362 3.68521L19.5302 3.68926L19.5242 3.69331L19.5203 3.69939L19.5163 3.70547L19.5104 3.70952L19.5044 3.71357L19.5004 3.71965H19.5996L20.1551 3.59809C20.5254 3.51704 20.8791 3.41912 21.2164 3.30431L21.752 3.12196L21.8115 3.1017L21.8413 3.09157L21.8611 3.08144L21.881 3.07131L21.9008 3.06118L21.9206 3.05105L21.9603 3.04497L22 3.04092V3.08144L21.9901 3.08549L21.9801 3.09157L21.9762 3.09765L21.9702 3.1017L21.9643 3.10576L21.9603 3.11183L21.9564 3.11791L21.9504 3.12196L21.9444 3.12602L21.9405 3.13209L21.9365 3.13817L21.9305 3.14222L21.9206 3.16248L21.9107 3.18275L21.9048 3.1868C21.9021 3.19085 21.8181 3.30565 21.6528 3.53123C21.4875 3.75814 21.3982 3.87294 21.385 3.87565C21.3718 3.87971 21.3533 3.89997 21.3295 3.93644C21.307 3.97424 21.1668 4.12486 20.9089 4.38825C20.651 4.65163 20.3984 4.88597 20.1511 5.09129C19.9025 5.29794 19.7769 5.55187 19.7742 5.85308C19.7702 6.15294 19.755 6.49198 19.7286 6.87016C19.7021 7.24836 19.6525 7.65693 19.5798 8.09592C19.5071 8.5349 19.3946 9.03129 19.2425 9.58507C19.0905 10.1388 18.9053 10.6791 18.6871 11.2059C18.4689 11.7327 18.2407 12.2054 18.0027 12.6241C17.7646 13.0429 17.5464 13.3974 17.348 13.6878C17.1497 13.9782 16.948 14.2517 16.743 14.5084C16.538 14.765 16.2788 15.0541 15.9654 15.3755C15.6506 15.6956 15.4787 15.8712 15.4496 15.9023C15.4192 15.932 15.2896 16.0428 15.0608 16.2346C14.8333 16.4277 14.5886 16.6209 14.3268 16.814C14.0662 17.0058 13.8269 17.1659 13.6086 17.2942C13.3904 17.4225 13.1273 17.569 12.8191 17.7338C12.5123 17.9 12.1803 18.054 11.8233 18.1958C11.4662 18.3376 11.0893 18.4693 10.6925 18.5909C10.2958 18.7124 9.91223 18.807 9.54192 18.8745C9.17163 18.942 8.75173 18.9995 8.28223 19.0467L7.57799 19.1176V19.1278H6.28854V19.1176L6.11992 19.1075C6.00752 19.1008 5.91494 19.094 5.84219 19.0872C5.76947 19.0805 5.49504 19.0433 5.01893 18.9758C4.54283 18.9083 4.16922 18.8407 3.8981 18.7732C3.627 18.7057 3.22362 18.5773 2.688 18.3883C2.15239 18.1992 1.69414 18.008 1.31325 17.8149C0.9337 17.6231 0.695648 17.5015 0.599098 17.4502C0.503877 17.4002 0.396753 17.3381 0.277727 17.2638L0.0991884 17.1524L0.0952407 17.1463L0.0892695 17.1422L0.0833182 17.1382L0.0793507 17.1321L0.059513 17.122L0.0396753 17.1118L0.0357276 17.1058L0.0297565 17.1017L0.0238052 17.0977L0.0198377 17.0916L0.01589 17.0855L0.00991884 17.0815H0V17.0409L0.0198377 17.045L0.0396753 17.0511L0.128945 17.0612C0.188458 17.0679 0.350472 17.0781 0.614968 17.0916C0.879483 17.1051 1.1605 17.1051 1.45807 17.0916C1.75563 17.0781 2.05982 17.0477 2.3706 17.0004C2.6814 16.9531 3.0484 16.8721 3.47159 16.7573C3.89481 16.6425 4.28363 16.5061 4.63807 16.348C4.99118 16.1887 5.24244 16.0698 5.3919 15.9914C5.54001 15.9145 5.76616 15.7713 6.07033 15.5619L6.52659 15.2479L6.53056 15.2418L6.53651 15.2377L6.54248 15.2337L6.54643 15.2276L6.5504 15.2215L6.55635 15.2175L6.56232 15.2134L6.56627 15.2074L6.58611 15.2013L6.60594 15.1972L6.60991 15.177L6.61586 15.1567L6.62183 15.1527L6.62578 15.1466L6.46708 15.1364C6.36129 15.1297 6.25879 15.1229 6.1596 15.1162C6.06041 15.1094 5.90502 15.079 5.69341 15.025C5.48182 14.971 5.25369 14.8899 5.00901 14.7819C4.76435 14.6738 4.5263 14.5455 4.29486 14.3969C4.06343 14.2484 3.89612 14.1248 3.79296 14.0262C3.69114 13.9289 3.55888 13.7911 3.39621 13.6129C3.23487 13.4332 3.09468 13.2488 2.97565 13.0597C2.85662 12.8707 2.7429 12.6525 2.63446 12.4053L2.46979 12.0366L2.45987 12.0062L2.44995 11.9758L2.444 11.9555L2.44003 11.9353L2.46979 11.9393L2.49955 11.9454L2.71776 11.9758C2.86325 11.9961 3.09138 12.0028 3.40216 11.9961C3.71296 11.9893 3.92786 11.9758 4.04689 11.9555C4.16591 11.9353 4.23866 11.9218 4.2651 11.915L4.30477 11.9049L4.35437 11.8948L4.40396 11.8846L4.40793 11.8786L4.41388 11.8745L4.41985 11.8705L4.4238 11.8644L4.38413 11.8542L4.34445 11.8441L4.30477 11.834L4.2651 11.8239L4.22542 11.8137C4.19898 11.807 4.1527 11.7935 4.08656 11.7732C4.02044 11.7529 3.8419 11.6786 3.55094 11.5503C3.26 11.422 3.02856 11.2971 2.85662 11.1755C2.68427 11.0536 2.51992 10.9203 2.36465 10.7764C2.20992 10.6305 2.03999 10.4428 1.85482 10.2131C1.66968 9.98353 1.50437 9.71676 1.35888 9.41285C1.21341 9.10894 1.1043 8.81855 1.03156 8.54165C0.959107 8.26638 0.911306 7.98495 0.888748 7.70084L0.85302 7.27537L0.872858 7.27942L0.892695 7.2855L0.912533 7.29563L0.932371 7.30576L0.952208 7.31589L0.972046 7.32602L1.27953 7.46784C1.48453 7.5624 1.73911 7.64344 2.04328 7.71097C2.34747 7.7785 2.5293 7.81566 2.58882 7.8224L2.67809 7.83253H2.85662L2.85268 7.82645L2.84671 7.8224L2.84075 7.81835L2.83679 7.81227L2.83284 7.80619L2.82687 7.80214L2.82092 7.79809L2.81695 7.79201L2.79711 7.78188L2.77727 7.77175L2.77333 7.76567L2.76736 7.76162L2.7614 7.75757L2.75744 7.75149L2.7376 7.74136L2.71776 7.73123L2.71381 7.72515C2.70985 7.72244 2.65297 7.67922 2.54319 7.59548C2.43474 7.51039 2.32101 7.40031 2.20198 7.26524C2.08296 7.13016 1.96393 6.98834 1.8449 6.83977C1.72566 6.69086 1.61945 6.53154 1.5275 6.36365C1.43494 6.19481 1.33706 5.98003 1.2339 5.71936C1.13208 5.46003 1.05471 5.19867 1.0018 4.93528C0.948915 4.67189 0.919159 4.41189 0.912533 4.15525C0.905927 3.89861 0.912533 3.67913 0.932371 3.49678C0.952208 3.31444 0.991884 3.10845 1.0514 2.87884C1.11091 2.64923 1.19689 2.4061 1.30929 2.14946L1.47791 1.76451L1.48783 1.73412L1.49774 1.70373L1.50372 1.69968L1.50766 1.6936L1.51163 1.68752L1.51758 1.68347L1.52355 1.68752L1.5275 1.6936L1.53147 1.69968L1.53742 1.70373L1.54339 1.70778L1.54734 1.71386L1.55131 1.71994L1.55726 1.72399L1.56718 1.74425L1.57709 1.76451L1.58307 1.76856L1.58701 1.77464L1.85482 2.07855C2.03336 2.28115 2.24497 2.5074 2.48963 2.75727C2.73431 3.00715 2.86986 3.13681 2.8963 3.14628C2.92276 3.15707 2.95581 3.18813 2.99549 3.23947C3.03516 3.28946 3.16742 3.40899 3.39224 3.59809C3.61708 3.78718 3.91133 4.00668 4.27502 4.25655C4.63872 4.50643 5.04208 4.75293 5.48512 4.99606C5.92817 5.23919 6.40427 5.45867 6.91343 5.65453C7.4226 5.85039 7.77968 5.9787 7.98466 6.03948C8.18967 6.10026 8.54012 6.17792 9.03606 6.27247C9.532 6.36703 9.90562 6.42781 10.1569 6.45482C10.4082 6.48182 10.5801 6.49736 10.6727 6.50142L10.8115 6.50547L10.8076 6.47508L10.8016 6.44469L10.7619 6.19143C10.7355 6.0226 10.7223 5.78622 10.7223 5.48231C10.7223 5.17841 10.7454 4.89814 10.7917 4.6415C10.838 4.38486 10.9074 4.12486 11 3.86147C11.0926 3.59809 11.1832 3.38669 11.2718 3.22732C11.3617 3.06929 11.4794 2.88897 11.6249 2.68636C11.7704 2.48376 11.9588 2.27441 12.1902 2.05829C12.4217 1.84217 12.6862 1.64969 12.9838 1.48086C13.2813 1.31203 13.5558 1.1837 13.807 1.09591C14.0583 1.00812 14.2699 0.950705 14.4418 0.923698C14.6138 0.896691 14.6997 0.881151 14.6997 0.877099Z" fill="#181A3F"/>
</svg>
