<svg width="25" height="17" viewBox="0 0 25 17" fill="none" xmlns="http://www.w3.org/2000/svg">
<path d="M13.0483 16.9765L7.97058 16.8843C6.32652 16.8522 4.67837 16.9163 3.06655 16.5835C0.61459 16.0862 0.440884 13.6481 0.25912 11.6029C0.00866786 8.72766 0.105625 5.80024 0.578262 2.949C0.84508 1.34916 1.89512 0.394523 3.51897 0.290641C9.00066 -0.0863644 14.5188 -0.0416853 19.9883 0.134201C20.566 0.150325 21.1476 0.238453 21.7172 0.338766C24.5288 0.828024 24.5974 3.59101 24.7797 5.91692C24.9614 8.26683 24.8847 10.6288 24.5373 12.9627C24.2586 14.8951 23.7253 16.5157 21.4748 16.6721C18.6551 16.8767 15.9001 17.0414 13.0725 16.9889C13.0726 16.9765 13.0564 16.9765 13.0483 16.9765ZM10.0631 12.0842C12.188 10.873 14.2723 9.68205 16.385 8.47903C14.2562 7.26789 12.1758 6.07693 10.0631 4.87391V12.0842Z" fill="#181A3F"/>
</svg>
